<?xml version="1.0" encoding="UTF-8"?> <svg xmlns="http://www.w3.org/2000/svg" xmlns:xlink="http://www.w3.org/1999/xlink" version="1.1" id="Layer_1" x="0px" y="0px" viewBox="0 0 656 435" style="enable-background:new 0 0 656 485;" xml:space="preserve"> <style type="text/css"> .st0{fill:#17FF7F;} .st1{fill:#F90659;} </style> <path class="st0" d="M579.9,200.4c34.9-8.2,70.8-38.8,70.8-96.1C650.8,44.2,609.5,0,542.1,0H385.6v131.1l-50.5-131h-86.4 L123.6,323.8h75.7l20.4-55.8h144.6l20.4,55.8h75.2l-0.3-0.8V207.7h50.5l63.6,116h79.1L579.9,200.4z M238.1,208.3L292,59.8 l53.4,148.5H238.1z M531.9,148.5h-72.3V59.2h72.3c27.7,0,48.5,17.5,48.5,44.6S559.6,148.5,531.9,148.5z"></path> <g> <path d="M0,452.8h16.9v4H4.6v8.9h12.4v4H4.6v14.8H0V452.8z"></path> <path d="M24.3,484.6v-31.8h8c3.2,0,5.8,0.8,7.7,2.4c1.9,1.6,2.8,3.7,2.8,6.5c0,1.9-0.5,3.5-1.4,4.8c-0.9,1.3-2.3,2.4-4,3 c1,0.7,2,1.6,3,2.7c1,1.2,2.3,3.2,4.1,6c1.1,1.8,2,3.2,2.7,4.1l1.7,2.3h-5.4l-1.4-2.1c0-0.1-0.1-0.2-0.3-0.4l-0.9-1.2l-1.4-2.3 l-1.5-2.5c-0.9-1.3-1.8-2.3-2.6-3.1c-0.8-0.8-1.5-1.3-2.1-1.7c-0.6-0.3-1.7-0.5-3.2-0.5h-1.2v13.8H24.3z M30.2,456.7h-1.4v10h1.7 c2.3,0,3.9-0.2,4.7-0.6c0.9-0.4,1.5-1,2-1.8c0.5-0.8,0.7-1.7,0.7-2.7c0-1-0.3-1.9-0.8-2.7c-0.5-0.8-1.3-1.4-2.2-1.7 C34,456.9,32.4,456.7,30.2,456.7z"></path> <path d="M54.6,452.8h18v4H59.1v9.7h13v4.1h-13v9.9H73v4H54.6V452.8z"></path> <path d="M80.2,452.8h18v4H84.7v9.7h13v4.1h-13v9.9h13.9v4H80.2V452.8z"></path> <path d="M105.8,452.8h4.5v27.6h14.3v4.1h-18.8V452.8z"></path> <path d="M141.1,452.6h3.2l14.2,31.9h-4.7l-4.2-9.4h-13.6l-4,9.4h-4.7L141.1,452.6z M147.8,471.1l-5.1-11.5l-4.8,11.5H147.8z"></path> <path d="M189.6,452.8h4.3v31.8H190l-21.2-24.5v24.5h-4.3v-31.8h3.7l21.4,24.7V452.8z"></path> <path d="M230.4,477.2v5c-3.3,1.8-7.2,2.7-11.6,2.7c-3.5,0-6.6-0.7-9-2.1c-2.5-1.4-4.4-3.4-5.9-5.9c-1.4-2.5-2.2-5.2-2.2-8.1 c0-4.6,1.6-8.5,4.9-11.7c3.3-3.2,7.4-4.7,12.2-4.7c3.3,0,7,0.9,11.1,2.6v4.9c-3.7-2.1-7.3-3.2-10.9-3.2c-3.6,0-6.7,1.1-9.1,3.4 c-2.4,2.3-3.6,5.2-3.6,8.6c0,3.5,1.2,6.3,3.5,8.6c2.4,2.2,5.4,3.4,9.1,3.4C223,480.8,226.8,479.6,230.4,477.2z"></path> <path d="M238.4,452.8h18v4h-13.5v9.7h13v4.1h-13v9.9h13.9v4h-18.4V452.8z"></path> <path d="M313.9,452.8h4.5l-12.8,31.9h-1l-10.4-25.8l-10.5,25.8h-1l-12.8-31.9h4.6l8.8,21.9l8.8-21.9h4.3l8.9,21.9L313.9,452.8z"></path> <path d="M324.3,452.8h18v4h-13.5v9.7h13v4.1h-13v9.9h13.9v4h-18.4V452.8z"></path> <path d="M360.6,484.6h-10.8v-31.8h8.3c2.6,0,4.7,0.3,6.1,1.1c1.5,0.7,2.6,1.7,3.4,2.9c0.8,1.2,1.2,2.7,1.2,4.3 c0,3.1-1.6,5.4-4.8,6.7c2.3,0.4,4.2,1.4,5.5,2.9c1.4,1.5,2.1,3.2,2.1,5.3c0,1.6-0.4,3.1-1.2,4.3c-0.8,1.3-2.1,2.3-3.7,3.1 C365.1,484.2,363.1,484.6,360.6,484.6z M358.3,456.9h-3.9v9.6h3c2.4,0,4.2-0.5,5.2-1.4c1-0.9,1.5-2.1,1.5-3.6 C364.2,458.4,362.2,456.9,358.3,456.9z M358.7,470.5h-4.3v10.1h4.5c2.5,0,4.2-0.2,5.1-0.6c0.9-0.4,1.6-1,2.1-1.8 c0.5-0.8,0.8-1.7,0.8-2.6c0-1-0.3-1.9-0.9-2.7c-0.6-0.8-1.4-1.4-2.4-1.8C362.6,470.7,360.9,470.5,358.7,470.5z"></path> <path d="M393.7,484.5v-31.7h10.7c4.3,0,7.7,0.6,10.3,1.9c2.5,1.3,4.5,3.2,6,5.7c1.5,2.5,2.2,5.3,2.2,8.2c0,2.1-0.4,4.2-1.2,6.1 c-0.8,1.9-2,3.6-3.5,5.1c-1.5,1.5-3.3,2.7-5.4,3.4c-1.2,0.5-2.3,0.8-3.3,0.9c-1,0.2-2.9,0.2-5.7,0.2H393.7z M404,456.9h-5.7v23.6 h5.8c2.3,0,4-0.2,5.3-0.5c1.3-0.3,2.3-0.7,3.2-1.2c0.8-0.5,1.6-1.1,2.3-1.8c2.2-2.3,3.4-5.1,3.4-8.6c0-3.4-1.2-6.2-3.5-8.3 c-0.8-0.8-1.8-1.5-2.9-2c-1.1-0.5-2.1-0.9-3.1-1C407.7,457,406.2,456.9,404,456.9z"></path> <path d="M430.9,452.8h18v4h-13.5v9.7h13v4.1h-13v9.9h13.9v4h-18.4V452.8z"></path> <path d="M476.7,452.8h4.5l-13.4,31.9h-1l-13.7-31.9h4.6l9.6,22.3L476.7,452.8z"></path> <path d="M487,452.8h18v4h-13.5v9.7h13v4.1h-13v9.9h13.9v4H487V452.8z"></path> <path d="M512.6,452.8h4.5v27.6h14.3v4.1h-18.8V452.8z"></path> <path d="M553.4,452.4c4.9,0,9,1.6,12.3,4.7s4.9,7,4.9,11.7c0,4.7-1.6,8.6-4.9,11.6c-3.3,3.1-7.4,4.6-12.5,4.6 c-4.8,0-8.8-1.5-12-4.6c-3.2-3.1-4.8-6.9-4.8-11.5c0-4.7,1.6-8.7,4.8-11.8C544.4,453.9,548.5,452.4,553.4,452.4z M553.6,456.7 c-3.6,0-6.6,1.1-9,3.4c-2.3,2.3-3.5,5.2-3.5,8.7c0,3.4,1.2,6.3,3.5,8.5c2.3,2.3,5.3,3.4,8.8,3.4c3.5,0,6.5-1.2,8.9-3.5 c2.4-2.3,3.6-5.2,3.6-8.7c0-3.4-1.2-6.2-3.6-8.5C559.9,457.8,557,456.7,553.6,456.7z"></path> <path d="M578.2,484.6v-31.8h10.1c3,0,5.4,0.8,7.3,2.5c1.8,1.6,2.7,3.8,2.7,6.6c0,1.8-0.5,3.5-1.4,4.9c-0.9,1.4-2.2,2.5-3.8,3.1 c-1.6,0.6-3.9,1-6.9,1h-3.4v13.8H578.2z M587.5,456.8h-4.7v9.9h5c1.9,0,3.3-0.4,4.3-1.3c1-0.9,1.5-2.1,1.5-3.7 C593.5,458.5,591.5,456.8,587.5,456.8z"></path> <path d="M604.5,452.8h18v4h-13.5v9.7h13v4.1h-13v9.9H623v4h-18.4V452.8z"></path> <path d="M630.3,484.6v-31.8h8c3.2,0,5.8,0.8,7.7,2.4c1.9,1.6,2.8,3.7,2.8,6.5c0,1.9-0.5,3.5-1.4,4.8c-0.9,1.3-2.3,2.4-4,3 c1,0.7,2,1.6,3,2.7c1,1.2,2.3,3.2,4.1,6c1.1,1.8,2,3.2,2.7,4.1l1.7,2.3h-5.4l-1.4-2.1c0-0.1-0.1-0.2-0.3-0.4l-0.9-1.2l-1.4-2.3 l-1.5-2.5c-0.9-1.3-1.8-2.3-2.6-3.1c-0.8-0.8-1.5-1.3-2.1-1.7c-0.6-0.3-1.7-0.5-3.2-0.5h-1.2v13.8H630.3z M636.2,456.7h-1.4v10h1.7 c2.3,0,3.9-0.2,4.7-0.6c0.9-0.4,1.5-1,2-1.8c0.5-0.8,0.7-1.7,0.7-2.7c0-1-0.3-1.9-0.8-2.7c-0.5-0.8-1.3-1.4-2.2-1.7 C640,456.9,638.4,456.7,636.2,456.7z"></path> </g> <g> <g> <path class="st1" d="M-0.2,301.1h68.9c24.9,0,37.7,15.9,37.7,33.4c0,16.5-10.2,27.5-22.6,30c13.9,2.2,25.1,15.7,25.1,32.2 c0,19.6-13.1,35.3-38.1,35.3H-0.2V301.1z M62.6,353.7c9.4,0,15.3-6.1,15.3-14.5c0-8-5.9-14.3-15.3-14.3H27.7v28.9H62.6z M63.6,408.2c10.6,0,16.9-6.1,16.9-15.5c0-8.2-5.9-15.3-16.9-15.3H27.7v30.8H63.6z"></path> <path class="st1" d="M182.1,420c-6.5,7.3-17.9,14.3-33.4,14.3c-20.8,0-30.6-11.4-30.6-29.8v-67.3h24.9v57.5 c0,13.1,6.9,17.5,17.5,17.5c9.6,0,17.3-5.3,21.6-10.8v-64.2h24.9V432h-24.9V420z"></path> <path class="st1" d="M220.6,337.2h24.9v13c6.7-8.4,18.5-15.1,30.2-15.1v24.3c-1.8-0.4-4.1-0.6-6.9-0.6c-8.2,0-19.2,4.5-23.4,10.6 V432h-24.9V337.2z"></path> <path class="st1" d="M280.1,337.2H305v13c6.7-8.4,18.4-15.1,30.2-15.1v24.3c-1.8-0.4-4.1-0.6-6.9-0.6c-8.2,0-19.2,4.5-23.4,10.6 V432h-24.9V337.2z"></path> <path class="st1" d="M333.4,384.5c0-26.9,18.8-49.7,50-49.7c31.4,0,50.2,22.8,50.2,49.7c0,27.1-18.8,49.9-50.2,49.9 C352.3,434.3,333.4,411.6,333.4,384.5z M407.8,384.5c0-14.7-8.8-27.5-24.3-27.5s-24.1,12.8-24.1,27.5c0,14.9,8.6,27.7,24.1,27.7 S407.8,399.4,407.8,384.5z"></path> <path class="st1" d="M504.2,367.4l-20,64.6h-26.7l-28.9-94.8h25.9l17.7,63.8l20.8-63.8h22.2L536,401l17.7-63.8h25.9L550.7,432 h-26.5L504.2,367.4z"></path> <path class="st1" d="M583.3,402.1c6.9,6.5,21,12.9,32.8,12.9c10.8,0,15.9-3.7,15.9-9.6c0-6.7-8.2-9-19-11.2 c-16.3-3.1-37.3-7.1-37.3-29.6c0-15.9,13.9-29.8,38.9-29.8c16.1,0,28.9,5.5,38.1,13l-9.8,17.1c-5.7-6.1-16.5-11-28.1-11 c-9,0-14.9,3.3-14.9,8.8c0,5.9,7.5,8,18.1,10.2c16.3,3.1,38.1,7.5,38.1,31c0,17.5-14.7,30.4-41,30.4c-16.5,0-32.4-5.5-42.4-14.7 L583.3,402.1z"></path> </g> <polygon class="st1" points="385.6,132.2 385.6,324.1 459.5,324.1 "></polygon> </g> </svg> 